<?xml version="1.0" standalone="yes"?>
<svg width="456" height="456">
<path style="fill:#ffffff; stroke:none;" d="M0 0L0 456L456 456L456 0L0 0z"/>
<path style="fill:#b7b7b7; stroke:none;" d="M164 32L164 211L165 211L165 85L165 49L164 32z"/>
<path style="fill:#595959; stroke:none;" d="M165 32L165 33L218 33L201 32L165 32z"/>
<path style="fill:#000000; stroke:none;" d="M165 33L165 159C165 179.229 168.685 203.593 162.25 223C150.162 259.454 98.5215 246.345 97 211L46 211C46.0425 275.182 110.501 302.746 166 285L166 398L218 398L218 291L333 291L333 398L385 398L385 145L333 145L333 220C333 225.932 335.803 241.991 331.397 246.397C326.669 251.124 308.424 248 302 248L218 248L217 33L165 33z"/>
<path style="fill:#323232; stroke:none;" d="M217 33L217 144L218 144L218 67L217 33z"/>
<path style="fill:#d1d1d1; stroke:none;" d="M218 144L218 247L219 247L219 175L218 144z"/>
<path style="fill:#707070; stroke:none;" d="M332 144L332 247L333 247L333 175L332 144z"/>
<path style="fill:#595959; stroke:none;" d="M333 144L333 145L385 145L368 144L333 144z"/>
<path style="fill:#7a7a7a; stroke:none;" d="M385 144L385 398L386 398L386 219L386 167L385 144z"/>
<path style="fill:#a0a0a0; stroke:none;" d="M45 210L45 217L46 217L45 210z"/>
<path style="fill:#262626; stroke:none;" d="M46 210L46 211L97 211C83.8727 205.492 60.3108 210 46 210z"/>
<path style="fill:#595959; stroke:none;" d="M164 211L164 214L165 214L164 211z"/>
<path style="fill:#c6c6c6; stroke:none;" d="M97 212L97 215L98 215L97 212z"/>
<path style="fill:#626262; stroke:none;" d="M97.3333 215.667L97.6667 216.333L97.3333 215.667z"/>
<path style="fill:#a6a6a6; stroke:none;" d="M163 216L163 219L164 219L163 216z"/>
<path style="fill:#4a4a4a; stroke:none;" d="M46 220L46 223L47 223L46 220z"/>
<path style="fill:#434343; stroke:none;" d="M98.3333 220.667L98.6667 221.333L98.3333 220.667z"/>
<path style="fill:#737373; stroke:none;" d="M162 222L163 223L162 222z"/>
<path style="fill:#b1b1b1; stroke:none;" d="M46.3333 223.667L46.6667 224.333L46.3333 223.667z"/>
<path style="fill:#a0a0a0; stroke:none;" d="M99 223L100 224L99 223z"/>
<path style="fill:#656565; stroke:none;" d="M161 225L162 226L161 225z"/>
<path style="fill:#727272; stroke:none;" d="M100 226L101 227L100 226z"/>
<path style="fill:#666666; stroke:none;" d="M47 227L47 230L48 230L47 227z"/>
<path style="fill:#7f7f7f; stroke:none;" d="M160 227L161 228L160 227z"/>
<path style="fill:#7a7a7a; stroke:none;" d="M101 228L102 229L101 228z"/>
<path style="fill:#7f7f7f; stroke:none;" d="M159 229L160 230L159 229z"/>
<path style="fill:#565656; stroke:none;" d="M102 230L103 231L102 230z"/>
<path style="fill:#8e8e8e; stroke:none;" d="M48.3333 232.667L48.6667 233.333L48.3333 232.667z"/>
<path style="fill:#959595; stroke:none;" d="M157 232L158 233L157 232z"/>
<path style="fill:#5c5c5c; stroke:none;" d="M105 234L106 235L105 234z"/>
<path style="fill:#6f6f6f; stroke:none;" d="M106 235L107 236L106 235z"/>
<path style="fill:#b5b5b5; stroke:none;" d="M49.3333 236.667L49.6667 237.333L49.3333 236.667z"/>
<path style="fill:#6a6a6a; stroke:none;" d="M107 236L108 237L107 236z"/>
<path style="fill:#a5a5a5; stroke:none;" d="M151 238L152 239L151 238z"/>
<path style="fill:#5e5e5e; stroke:none;" d="M50 239L51 240L50 239z"/>
<path style="fill:#898989; stroke:none;" d="M111 239L112 240L111 239z"/>
<path style="fill:#8c8c8c; stroke:none;" d="M148 240L149 241L148 240z"/>
<path style="fill:#828282; stroke:none;" d="M146 241L147 242L146 241z"/>
<path style="fill:#7a7a7a; stroke:none;" d="M51 242L52 243L51 242z"/>
<path style="fill:#858585; stroke:none;" d="M117 242L118 243L117 242z"/>
<path style="fill:#acacac; stroke:none;" d="M120.667 243.333L121.333 243.667L120.667 243.333z"/>
<path style="fill:#808080; stroke:none;" d="M139 243L139 244L142 244L139 243z"/>
<path style="fill:#949494; stroke:none;" d="M124 244L124 245L135 245L124 244z"/>
<path style="fill:#343434; stroke:none;" d="M135.667 244.333L136.333 244.667L135.667 244.333z"/>
<path style="fill:#9c9c9c; stroke:none;" d="M53 247L54 248L53 247z"/>
<path style="fill:#717171; stroke:none;" d="M218 247L218 248L332 248L297 247L218 247z"/>
<path style="fill:#9c9c9c; stroke:none;" d="M54 249L55 250L54 249z"/>
<path style="fill:#a7a7a7; stroke:none;" d="M55 251L56 252L55 251z"/>
<path style="fill:#646464; stroke:none;" d="M57 254L58 255L57 254z"/>
<path style="fill:#565656; stroke:none;" d="M59 257L60 258L59 257z"/>
<path style="fill:#828282; stroke:none;" d="M61 260L62 261L61 260z"/>
<path style="fill:#a7a7a7; stroke:none;" d="M66 266L67 267L66 266z"/>
<path style="fill:#a8a8a8; stroke:none;" d="M67 267L68 268L67 267z"/>
<path style="fill:#838383; stroke:none;" d="M74 273L75 274L74 273z"/>
<path style="fill:#585858; stroke:none;" d="M77 275L78 276L77 275z"/>
<path style="fill:#666666; stroke:none;" d="M80 277L81 278L80 277z"/>
<path style="fill:#a7a7a7; stroke:none;" d="M83 279L84 280L83 279z"/>
<path style="fill:#949494; stroke:none;" d="M85 280L86 281L85 280z"/>
<path style="fill:#969696; stroke:none;" d="M87 281L88 282L87 281z"/>
<path style="fill:#636363; stroke:none;" d="M92 283L93 284L92 283z"/>
<path style="fill:#9f9f9f; stroke:none;" d="M94 284L95 285L94 284z"/>
<path style="fill:#3f3f3f; stroke:none;" d="M97.6667 285.333L98.3333 285.667L97.6667 285.333z"/>
<path style="fill:#181818; stroke:none;" d="M164 285L165 324L165 398L166 398L166 314C166 307.414 169.065 289.426 164 285z"/>
<path style="fill:#5b5b5b; stroke:none;" d="M100.667 286.333L101.333 286.667L100.667 286.333z"/>
<path style="fill:#989898; stroke:none;" d="M161.667 286.333L162.333 286.667L161.667 286.333z"/>
<path style="fill:#575757; stroke:none;" d="M104.667 287.333L105.333 287.667L104.667 287.333z"/>
<path style="fill:#979797; stroke:none;" d="M157.667 287.333L158.333 287.667L157.667 287.333z"/>
<path style="fill:#818181; stroke:none;" d="M108 288L108 289L111 289L108 288z"/>
<path style="fill:#5f5f5f; stroke:none;" d="M151.667 288.333L152.333 288.667L151.667 288.333z"/>
<path style="fill:#bcbcbc; stroke:none;" d="M153.667 288.333L154.333 288.667L153.667 288.333z"/>
<path style="fill:#b4b4b4; stroke:none;" d="M113.667 289.333L114.333 289.667L113.667 289.333z"/>
<path style="fill:#6f6f6f; stroke:none;" d="M115.667 289.333L116.333 289.667L115.667 289.333z"/>
<path style="fill:#3b3b3b; stroke:none;" d="M117 289L117 290L120 290L117 289z"/>
<path style="fill:#818181; stroke:none;" d="M145 289L145 290L148 290L145 289z"/>
<path style="fill:#9d9d9d; stroke:none;" d="M122 290L122 291L139 291L122 290z"/>
<path style="fill:#d1d1d1; stroke:none;" d="M218 291L218 398L219 398L219 292L332 292L297 291L218 291z"/>
<path style="fill:#707070; stroke:none;" d="M332 291L332 398L333 398L333 324L332 291z"/>
</svg>
